<?xml version="1.0" encoding="UTF-8"?><svg id="Layer_2" xmlns="http://www.w3.org/2000/svg" xmlns:xlink="http://www.w3.org/1999/xlink" viewBox="0 0 43.49 41.35"><defs><style>.cls-1{fill:url(#radial-gradient-2);}.cls-1,.cls-2{opacity:.32;}.cls-3{fill:#fff;}.cls-4{clip-path:url(#clippath-1);}.cls-5{fill:none;}.cls-2{fill:url(#radial-gradient);}</style><clipPath id="clippath-1"><rect class="cls-5" x=".07" width="43.42" height="41.35" rx="11.56" ry="11.56"/></clipPath><radialGradient id="radial-gradient" cx="-35.42" cy="50.24" fx="-35.42" fy="50.24" r="64.8" gradientTransform="translate(.8 .1)" gradientUnits="userSpaceOnUse"><stop offset="0" stop-color="#7736dc"/><stop offset=".23" stop-color="#7535d9"/><stop offset=".37" stop-color="#7033d0"/><stop offset=".49" stop-color="#692fc2"/><stop offset=".6" stop-color="#5d2aad"/><stop offset=".69" stop-color="#4f2492"/><stop offset=".78" stop-color="#3d1b71"/><stop offset=".87" stop-color="#28124a"/><stop offset=".95" stop-color="#10071e"/><stop offset="1" stop-color="#000"/></radialGradient><radialGradient id="radial-gradient-2" cx="77.03" cy="35.45" fx="77.03" fy="35.45" r="61.01" gradientTransform="translate(.08 -.29)" gradientUnits="userSpaceOnUse"><stop offset="0" stop-color="#4f46e5"/><stop offset=".22" stop-color="#4e45e2" stop-opacity=".99"/><stop offset=".37" stop-color="#4b42d9" stop-opacity=".95"/><stop offset=".48" stop-color="#463ecb" stop-opacity=".89"/><stop offset=".59" stop-color="#3e37b6" stop-opacity=".8"/><stop offset=".68" stop-color="#352f9b" stop-opacity=".68"/><stop offset=".77" stop-color="#2a257a" stop-opacity=".54"/><stop offset=".86" stop-color="#1c1953" stop-opacity=".37"/><stop offset=".94" stop-color="#0d0c27" stop-opacity=".17"/><stop offset="1" stop-color="#000" stop-opacity="0"/></radialGradient></defs><g id="Layer_1-2"><g><rect width="43.42" height="41.35" rx="11.56" ry="11.56"/><g><rect width="43.42" height="41.35" rx="11.56" ry="11.56"/><path class="cls-3" d="M21.67,30.37c-2.02,0-3.75-.42-5.19-1.25s-2.55-1.99-3.32-3.47c-.77-1.48-1.16-3.2-1.16-5.15s.39-3.68,1.17-5.17c.78-1.48,1.89-2.64,3.33-3.47,1.44-.83,3.16-1.25,5.17-1.25,1.77,0,3.31,.32,4.63,.96,1.32,.64,2.35,1.54,3.09,2.71,.74,1.17,1.14,2.54,1.18,4.11h-5.7c-.12-.98-.45-1.75-.99-2.31-.54-.56-1.25-.84-2.12-.84-.71,0-1.33,.2-1.86,.59-.53,.4-.95,.98-1.24,1.75-.29,.77-.44,1.72-.44,2.85s.15,2.08,.44,2.86c.29,.78,.71,1.36,1.24,1.76,.53,.39,1.15,.59,1.86,.59,.57,0,1.07-.12,1.5-.36,.44-.24,.8-.6,1.08-1.07,.28-.47,.46-1.04,.54-1.71h5.7c-.06,1.58-.45,2.96-1.18,4.14s-1.75,2.1-3.05,2.75c-1.31,.65-2.86,.98-4.66,.98Z"/><g class="cls-4"><circle class="cls-2" cx="-34.67" cy="50.4" r="64.87"/><circle class="cls-1" cx="77.09" cy="35.15" r="60.99"/></g></g></g></g></svg>